<svg xmlns="http://www.w3.org/2000/svg" xmlns:xlink="http://www.w3.org/1999/xlink" width="83" height="110" viewBox="0 0 83 110"><defs><path id="o009a" d="M573.13 1126L532 1143.28v48.38s-.21 25.5 41.13 43.62c41.34-18.11 41.13-43.62 41.13-43.62v-48.38z"/><path id="o009b" d="M608.43 1147.14v44.52c-.01.84-.8 21.24-35.3 37.23v-96.56z"/><path id="o009c" d="M573.13 1132.33v96.56c-34.48-16-35.3-36.97-35.3-37.19v-44.56z"/><path id="o009d" d="M546.9 1177.1a26.23 26.23 0 1 1 52.46 0 26.23 26.23 0 0 1-52.46 0z"/><path id="o009e" d="M595.52 1177.1a22.38 22.38 0 0 1-39.56 14.34l32.53-30.63a22.32 22.32 0 0 1 7.03 16.28z"/><path id="o009f" d="M588.5 1160.81l-32.54 30.63a22.37 22.37 0 0 1 32.54-30.63z"/><path id="o009g" d="M573.89 1175.78h-3.56v-7.46h3.56a3.74 3.74 0 0 1 0 7.46zm0 10.09h-3.56v-7.47h3.56a3.74 3.74 0 0 1 0 7.47zm3.85-8.78zm2.5-5.04c0-3.5-2.85-6.36-6.35-6.36h-.72v-2.62h-1.31v2.62h-1.53v-2.62h-1.31v2.62h-3v2.63h1.69v7.46h-1.69v2.62h1.69v7.47h-1.69v2.62h3v2.62h1.31v-2.62h1.53v2.62h1.31v-2.62h.72a6.36 6.36 0 0 0 3.85-11.4 6.3 6.3 0 0 0 2.5-5.04z"/></defs><g><g transform="translate(-532 -1126)"><g><use fill="#64798a" xlink:href="#o009a"/></g><g><use fill="#e1e6e9" xlink:href="#o009b"/></g><g><use fill="#ebf0f3" xlink:href="#o009c"/></g><g><use fill="#27a2db" xlink:href="#o009d"/></g><g><use fill="#1c75a1" xlink:href="#o009e"/></g><g><use fill="#2d93ba" xlink:href="#o009f"/></g><g><use fill="#e1e6e9" xlink:href="#o009g"/></g></g></g></svg>