<svg xmlns="http://www.w3.org/2000/svg" xmlns:xlink="http://www.w3.org/1999/xlink" width="389" height="110" viewBox="0 0 389 110"><defs><path id="rwhoa" d="M350.5 145.65zm0 0l.01-10.76c.1-.04.21-.13.3-.13 3.96.02 7.95.04 11.92.13a7.5 7.5 0 0 1 2.41.54c1.95.72 3.14 2.07 3.24 4.24.1 2.3-.75 4.1-2.89 5.04-1.1.48-2.32.86-3.49.9-3.8.1-7.6.04-11.5.04zm0 7.33c.18-.02.35-.06.51-.06 4.05 0 8.08-.08 12.14.06 1.6.06 3.24.42 4.73.96 1.91.68 2.93 2.2 2.97 4.32.04 2.16-.77 3.9-2.78 4.78a11 11 0 0 1-3.89.95c-4.53.1-9.03.05-13.69.05v-11.06zm20.69-4.44c.43-.32.76-.54 1.08-.73 6.1-4.16 6.23-14.44-1.02-18.39a14.34 14.34 0 0 0-6.71-1.95c-7.13-.12-14.28-.12-21.4-.19-.81 0-.98.4-.98 1.1.02 14.07.02 28.11 0 42.18 0 .79.27 1.1 1.08 1.1 6.71-.02 13.44.02 20.15-.04 3.5-.04 6.9-.6 10.02-2.33 3.97-2.22 5.86-5.67 5.84-10.16-.02-4.49-2.16-7.69-6.15-9.68-.6-.31-1.23-.58-1.91-.91z"/><path id="rwhob" d="M67.49 96.02c3.13.43 6.19.74 9.2 1.3 3.6.67 6.94 2.06 9.93 4.22 4.5 3.26 6.8 7.77 7.19 13.2.31 4.17-.08 8.33-1.95 12.13-2.7 5.5-7.3 8.68-13.13 10.28a37.8 37.8 0 0 1-10.35 1.31c-3.28-.02-6.59 0-9.87 0-1.62 0-1.64-.02-1.64-1.6v-6.96c0-1.04.42-1.35 1.3-1.4l1.05-.01c3.01 0 6.02.06 9.03-.04a19 19 0 0 0 8.94-2.31c3.9-2.22 5.15-5.92 4.78-10.03-.44-5.03-3.93-7.82-8.7-9-2.21-.54-4.5-.73-6.76-.85-2.76-.15-5.55-.04-8.31-.02-.96 0-1.31-.3-1.31-1.33V80.29c0-.98.33-1.29 1.25-1.29h8c1.2 0 1.37.2 1.37 1.4-.02 5.23-.02 10.46-.02 15.62z"/><path id="rwhoc" d="M49.2 134.06v36.25c0 1.3-.04 1.35-1.35 1.35h-7.58c-1.77 0-2.26-.5-2.26-2.29V132.6 99.05c0-.38-.03-.77.02-1.14.08-1.02.66-1.62 1.66-1.65 2.87-.04 5.73 0 8.62-.02.9 0 .91.54.91 1.25-.02 12.2-.02 24.4-.02 36.57z"/><path id="rwhod" d="M141.68 134.76v15.13c1.64 0 3.2.04 4.75 0 2.14-.07 4.3.04 6.42-.3 3.87-.6 6.26-3.42 6.32-7.08.06-3.95-1.97-6.65-6.13-7.2-3.72-.5-7.5-.38-11.36-.55zm-.09 22.77v6.23c0 2.25-.02 4.51.02 6.76.02.79-.25 1.12-1.08 1.1a155.8 155.8 0 0 0-6.23 0c-.81.02-1.12-.27-1.1-1.08.04-2.33.02-4.64.02-6.96V128.7c0-1.44 0-1.44 1.45-1.44 6.13.04 12.26.04 18.37.15 2.33.04 4.57.7 6.69 1.72 6.13 2.97 8.64 8.85 7.8 15.25-.92 6.9-5.78 11.6-13.14 12.7-2.72.39-5.5.33-8.27.43-1.47.06-2.9.02-4.53.02z"/><path id="rwhoe" d="M67.47 171.76v15.67c0 .91-.34 1.27-1.17 1.27H58c-.84 0-1.13-.34-1.13-1.19v-24.5c0-1.05.44-1.3 1.35-1.3 3.84.02 7.69.08 11.53-.02 3.2-.09 6.4-.42 9.43-1.62 4.4-1.75 6.57-4.89 6.6-9.64a11.6 11.6 0 0 0-1.4-6.17c-.38-.65-.32-1.02.45-1.31 3.37-1.48 5.4-2.7 7.96-4.86.3-.25.75-.2 1 .12 2.9 3.8 3.92 8.12 3.88 12.74-.04 4.8-1.37 9.12-4.6 12.77-2.54 2.85-5.74 4.64-9.3 5.84a37.96 37.96 0 0 1-10.34 1.93c-1.93.07-3.85.17-5.96.27z"/><path id="rwhof" d="M201.57 155.04c-.1-.79-.14-1.58-.29-2.37a9.65 9.65 0 0 0-9.16-7.91 9.08 9.08 0 0 0-9.4 6.66c-.39 1.38-.55 2.87-.51 4.3.2 6 5.36 10.2 11.3 9.33 4.72-.7 7.98-4.78 8.06-10.01zm-10.43-17.58c9.35-.41 17.45 6.28 18.45 15.1 1.1 9.69-4.98 17.87-14.5 19.56-9.64 1.7-18.47-3.89-20.67-13.13A17.48 17.48 0 0 1 190 137.55c.42-.02.87-.07 1.14-.09z"/><path id="rwhog" d="M246.12 142.39l.8-.88c4.08-4.65 10.25-4.88 14.55-2.97 4.15 1.83 6.09 5.34 6.48 9.66.27 3.14.17 6.3.19 9.44.02 4.21-.02 8.45.02 12.67 0 1-.3 1.37-1.31 1.33-1.91-.06-3.8-.06-5.71 0-1.04.04-1.3-.35-1.3-1.33.05-5.82.05-11.64 0-17.45 0-.96-.07-1.96-.28-2.89-.73-3.26-2.93-4.92-6.36-4.94-3.49-.03-6.05 1.9-6.81 5.21-.23.98-.3 2-.3 3-.02 5.66-.02 11.34-.02 17.03 0 1.33-.04 1.37-1.33 1.37-1.93 0-3.88-.02-5.81.02-.88.02-1.15-.31-1.12-1.16.02-10.41.02-20.84 0-31.25 0-.85.24-1.18 1.12-1.16 2.01.04 4 .04 6.02 0 .87-.02 1.17.33 1.12 1.16 0 .93.05 1.89.05 3.14z"/><path id="rwhoh" d="M330.61 141.5l-2.93 5.25c-.35.62-.75.33-1.22.12-2.14-.87-4.24-1.89-6.45-2.47-1.32-.35-3.49-.29-4.23-.08a3.17 3.17 0 0 0-2.1 2.5c-.15 1.22.52 2 1.51 2.46 1.67.75 3.4 1.35 5.1 2.02 2.07.83 4.23 1.5 6.23 2.53 7.25 3.76 5.48 13.4.12 16.42a15.74 15.74 0 0 1-7.95 1.95 23.05 23.05 0 0 1-14.2-5.07c-.04-.04-.06-.12-.12-.2 1.06-1.6 2.14-3.2 3.18-4.85.48-.75.91-.43 1.45-.06 2.8 1.95 5.84 3.34 9.29 3.47 1.12.04 2.29-.15 3.37-.44 1.22-.33 1.93-1.26 2.03-2.6.1-1.26-.64-2.07-1.66-2.49-1.85-.74-3.76-1.35-5.65-2.03-1.68-.63-3.4-1.17-5.03-1.94-3.24-1.55-5.2-4.09-5.3-7.79-.1-3.88 1.5-6.91 4.84-8.9 2.98-1.8 6.26-2.1 9.62-1.7 3.5.44 6.71 1.63 9.66 3.5.13.1.25.23.44.4z"/><path id="rwhoi" d="M287.92 138.04c2.63 0 5.1.05 7.6-.02.96-.02 1.29.32 1.25 1.25a61.03 61.03 0 0 0 0 4.78c.04 1-.34 1.25-1.27 1.22-2.5-.06-4.97-.02-7.52-.02-.02.38-.06.67-.06.98v14.63c0 2.86 1.22 4.09 4.09 3.88 1.22-.08 2.43-.48 3.61-.83.77-.23 1.04-.06 1.02.7-.02 1.73.02 3.48-.02 5.2 0 .3-.27.73-.52.85a13.68 13.68 0 0 1-11.63.6c-3.01-1.2-4.3-3.8-4.61-6.85-.21-1.95-.17-3.95-.2-5.9-.01-4.36 0-8.7 0-13.24-1.07 0-2.09-.02-3.1 0-.76.03-1.07-.24-1.07-1.01.02-1.73.04-3.47 0-5.2-.02-.79.33-1.04 1.06-1.02 1 .05 2 0 3.12 0v-6.81c0-2.6-.27-2.33 2.33-2.33 1.55 0 3.11.04 4.67-.02.93-.04 1.29.27 1.27 1.25-.07 2.6-.02 5.2-.02 7.91z"/><path id="rwhoj" d="M409.08 145.27c-1.12 0-2.12-.02-3.12 0-.72.03-1.08-.22-1.06-1 .05-1.72.05-3.46 0-5.19-.02-.77.3-1.06 1.06-1.04 1 .05 2 0 3.14 0v-4.92c0-1.04.02-2.08 0-3.12-.02-.79.27-1.12 1.08-1.1 2.04.04 4.1.04 6.13 0 .83-.02 1.08.34 1.06 1.13-.04 2.61-.02 5.25-.02 8.04h1.87c1.97 0 3.95.02 5.92-.03.75-.02 1.06.25 1.06 1.02-.04 1.73-.04 3.47 0 5.2.02.77-.27 1.04-1.04 1.01-2.55-.04-5.11-.02-7.75-.02-.02.4-.04.73-.04 1.06v14.53c0 2.86 1.2 4.09 4.07 3.9 1.23-.08 2.43-.48 3.62-.83.74-.23 1.04-.1 1.04.69 0 1.72.02 3.47-.03 5.19 0 .3-.24.73-.51.85-3.83 1.91-7.77 2.2-11.74.58-3.02-1.22-4.3-3.84-4.53-6.91-.21-2.77-.17-5.53-.19-8.3-.04-3.53-.02-7.06-.02-10.74z"/><path id="rwhok" d="M218.77 154.73c0-5.13.03-10.24-.02-15.38 0-1 .3-1.35 1.31-1.33 1.94.07 3.89.05 5.82 0 .83-.02 1.18.23 1.18 1.13-.02 10.45-.02 20.9 0 31.35 0 .89-.37 1.12-1.18 1.1-1.97-.04-3.95-.04-5.92 0-.94.02-1.19-.36-1.19-1.23.03-5.2 0-10.43 0-15.64z"/><path id="rwhol" d="M396.78 154.83c0 5.15-.02 10.3.02 15.48 0 1-.27 1.37-1.29 1.33-1.93-.06-3.88-.04-5.81 0-.81.02-1.19-.23-1.19-1.12.02-10.45.02-20.9 0-31.35 0-.9.38-1.15 1.19-1.13 1.97.05 3.94.05 5.92 0 .91-.02 1.18.34 1.18 1.23-.04 5.17-.02 10.37-.02 15.56z"/><path id="rwhom" d="M222.78 133.66c-1.14 0-2.28-.02-3.42 0-.63.02-.88-.25-.88-.87.02-2.04.02-4.1 0-6.13 0-.7.34-.9.96-.9 2.28.03 4.57.03 6.86 0 .62 0 .97.2.95.9-.02 2.04-.02 4.1 0 6.13 0 .62-.23.87-.85.87h-3.62z"/><path id="rwhon" d="M392.63 133.66c-1.19 0-2.35-.02-3.54 0-.62.02-.87-.25-.85-.87.02-2.04.02-4.1 0-6.13 0-.6.25-.9.85-.9h7.07c.62 0 .87.28.85.9-.02 2.04-.02 4.1 0 6.13 0 .62-.23.87-.85.87h-3.53z"/></defs><g><g transform="translate(-38 -79)"><g><use fill="#fff" xlink:href="#rwhoa"/></g><g><use fill="#3fc8ff" xlink:href="#rwhob"/></g><g><use fill="#3fc8ff" xlink:href="#rwhoc"/></g><g><use fill="#fff" xlink:href="#rwhod"/></g><g><use fill="#fff" xlink:href="#rwhoe"/></g><g><use fill="#fff" xlink:href="#rwhof"/></g><g><use fill="#fff" xlink:href="#rwhog"/></g><g><use fill="#fff" xlink:href="#rwhoh"/></g><g><use fill="#fff" xlink:href="#rwhoi"/></g><g><use fill="#fff" xlink:href="#rwhoj"/></g><g><use fill="#fff" xlink:href="#rwhok"/></g><g><use fill="#fff" xlink:href="#rwhol"/></g><g><use fill="#fff" xlink:href="#rwhom"/></g><g><use fill="#fff" xlink:href="#rwhon"/></g></g></g></svg>