<svg xmlns="http://www.w3.org/2000/svg" xmlns:xlink="http://www.w3.org/1999/xlink" width="23" height="30" viewBox="0 0 23 30"><defs><path id="zl7ha" d="M79.35 787.52c0 3.1-2.51 5.6-5.6 5.6h-6.26a5.62 5.62 0 0 1-5.6-5.6v-9.12h17.46zm-14.38-15.43a3.47 3.47 0 0 1 3.46-3.47h4.37a3.47 3.47 0 0 1 3.47 3.47v4.23h-11.3zm15.43 4.23h-2.05v-4.23a5.55 5.55 0 0 0-5.55-5.55h-4.37a5.55 5.55 0 0 0-5.55 5.55v4.23h-2.04c-.57 0-1.04.46-1.04 1.04v10.16a7.7 7.7 0 0 0 7.7 7.69h6.24a7.7 7.7 0 0 0 7.7-7.7v-10.15c0-.58-.47-1.04-1.04-1.04z"/><path id="zl7hb" d="M69.58 789.68a1.04 1.04 0 1 0 2.08 0v-2.98c.12-.17.2-.38.2-.6 0-.58-.47-1.04-1.04-1.04h-.4a1.04 1.04 0 0 0-.84 1.64z"/></defs><g><g transform="translate(-59 -766)"><g><g><use fill="#849fb4" xlink:href="#zl7ha"/></g><g><use fill="#849fb4" xlink:href="#zl7hb"/></g></g></g></g></svg>