<svg xmlns="http://www.w3.org/2000/svg" xmlns:xlink="http://www.w3.org/1999/xlink" width="37" height="36" viewBox="0 0 37 36"><defs><path id="pvk6a" d="M1847.66 220.11a8.4 8.4 0 0 1-7.45 8.3v-5.08a3.45 3.45 0 0 0 2.54-3.22c0-.34 0-.5-.17-.84l4.4-2.37c.5 1.01.68 2.2.68 3.21zm-9.82 0c0-.84.68-1.7 1.7-1.7 1 0 1.68.69 1.68 1.7 0 1.02-.67 1.7-1.69 1.7-1.01 0-1.7-.68-1.7-1.7zm.84 8.3zm-7.44-8.3c0-1.18.17-2.2.67-3.21l4.4 2.37c0 .33-.16.5-.16.84a3.26 3.26 0 0 0 2.53 3.22v5.08a8.16 8.16 0 0 1-7.44-8.3zm8.12-8.12a8.04 8.04 0 0 1 6.77 3.55l-4.4 2.37a3.34 3.34 0 0 0-2.37-1.01c-.84 0-1.7.33-2.37 1.01l-4.4-2.37a8.27 8.27 0 0 1 6.77-3.55zm0-1.7a10 10 0 0 0-9.99 10 10 10 0 0 0 10 9.98 9.9 9.9 0 0 0 9.98-9.99 9.9 9.9 0 0 0-9.99-9.99zm16.59 11.85c0 .17 0 .17 0 0l-1.7.51c-.5.17-1 .68-1.18 1.19a20.17 20.17 0 0 1-1.35 3.38c-.34.5-.34 1.19 0 1.7l.84 1.52-2.87 2.87-1.53-.84c-.34-.17-.5-.17-.84-.17-.34 0-.51 0-.85.17-1.01.67-2.2 1.01-3.38 1.35-.51.17-1.02.68-1.19 1.19l-.5 1.69h-4.07l-.5-1.7a2.04 2.04 0 0 0-1.2-1.18 20.17 20.17 0 0 1-3.38-1.35c-.34-.17-.5-.17-.84-.17-.34 0-.51 0-.85.17l-1.52.84-2.71-2.87.84-1.53c.34-.5.34-1.18 0-1.69a11.82 11.82 0 0 1-1.35-3.38 2.04 2.04 0 0 0-1.18-1.19l-1.7-.34v-4.23l1.7-.5c.5-.18 1.01-.68 1.18-1.2.34-1.18.85-2.36 1.35-3.38.34-.5.34-1.18 0-1.69l-.84-1.35 2.88-2.88 1.52.84c.34.17.5.17.85.17.33 0 .5 0 .84-.17 1.02-.67 2.2-1.01 3.39-1.35.5-.17 1.01-.68 1.18-1.18l.51-1.7h4.06l.51 1.7c.17.5.68 1.01 1.18 1.18 1.19.34 2.37.85 3.39 1.35.34.17.5.17.85.17.33 0 .5 0 .84-.17l1.36-.84 2.87 2.88-.84 1.52c-.34.5-.34 1.18 0 1.7.68 1 1.01 2.2 1.35 3.38.17.5.68 1.01 1.19 1.18l1.69.51zm.5-5.58l-1.69-.51a14.37 14.37 0 0 0-1.52-3.72l1.02-1.53c.34-.5.5-1.18 0-1.7l-3.39-3.38c-.5-.33-.84-.33-1.01-.33-.34 0-.68.16-1.02.33l-1.52 1.02a14.37 14.37 0 0 0-3.73-1.52l-.5-1.7c-.17-.84-.51-1.52-1.19-1.52h-4.9c-.69 0-1.02.68-1.2 1.18l-.5 1.7c-1.35.5-2.54 1.01-3.72 1.69l-1.53-1.02c-.34-.16-.68-.16-1.01-.16-.34 0-.51 0-.68.16l-3.39 3.39c-.5.5-.33 1.18 0 1.7l1.02 1.52a12.97 12.97 0 0 0-1.7 3.89l-1.69.5c-.67.18-1.35.51-1.35 1.2v4.9c0 .68.68 1.02 1.18 1.19l1.7.5c.34 1.36.84 2.54 1.52 3.73l-1.01 1.52c-.34.5-.51 1.19 0 1.7l3.38 3.38c.17.17.5.34.68.34.34 0 .67-.17 1.01-.34l1.53-1.02c1.18.68 2.37 1.19 3.72 1.53l.5 1.69c.18.68.52 1.18 1.2 1.18h4.9c.68 0 1.02-.67 1.19-1.18l.5-1.7c1.36-.33 2.54-.84 3.73-1.52l1.52 1.02c.34.17.68.34 1.02.34.34 0 .5 0 .67-.34l3.39-3.39c.5-.5.34-1.18 0-1.69l-1.02-1.52a17.27 17.27 0 0 0 1.53-3.73l1.69-.5c.68-.17 1.19-.51 1.19-1.19v-4.9c.67-.69 0-1.02-.51-1.2z"/></defs><g><g transform="translate(-1821 -202)"><use fill="#f6f8fa" xlink:href="#pvk6a"/></g></g></svg>