<svg xmlns="http://www.w3.org/2000/svg" xmlns:xlink="http://www.w3.org/1999/xlink" width="35" height="31" viewBox="0 0 35 31"><defs><path id="4lzta" d="M1245.72 733.1c-.14-.55.14-1.23.82-1.37.55-.14 1.24.14 1.38.82a12.88 12.88 0 0 0 12.37 9.76c5.18 0 9.73-3.17 11.7-7.84l-4.14 1.52c-.55.28-1.24-.14-1.38-.69-.27-.55.14-1.23.7-1.37l6.17-2.34c.44-.1.87-.04 1.17.25.15.14.26.32.33.53l3.04 5.82c.28.55 0 1.24-.41 1.51-.41.14-.55.14-.69.14-.41 0-.82-.27-.96-.55l-1.95-3.7c-2.55 5.32-7.77 8.92-13.72 8.92a14.83 14.83 0 0 1-14.43-11.4z"/><path id="4lztb" d="M1272.38 725.4c-1.65-5.49-6.6-9.2-12.23-9.2-4.94 0-9.35 2.85-11.48 7.26l4.2-1.21c.55-.14 1.23.13 1.37.82.14.55-.27 1.1-.82 1.38l-6.19 1.64h-.55a1.07 1.07 0 0 1-.86-1.03l-2.71-5.56c-.28-.55 0-1.24.55-1.51.55-.28 1.23 0 1.5.55l1.72 3.6c2.53-4.99 7.6-8.14 13.27-8.14 6.6 0 12.37 4.26 14.3 10.72.13.55-.14 1.24-.7 1.37-.09.03-.19.04-.28.04-.48 0-.97-.27-1.09-.72z"/></defs><g><g transform="translate(-1243 -714)"><use fill="#109bf8" xlink:href="#4lzta"/></g><g transform="translate(-1243 -714)"><use fill="#109bf8" xlink:href="#4lztb"/></g></g></svg>