<svg xmlns="http://www.w3.org/2000/svg" xmlns:xlink="http://www.w3.org/1999/xlink" width="30" height="76" viewBox="0 0 30 76"><defs><path id="9xq6a" d="M971.93 880.39c0 7.9-5.34 14.34-11.91 14.34-6.58 0-11.91-6.44-11.91-14.4v-14.06c0-7.96 5.33-14.4 11.9-14.4 6.58 0 11.92 6.44 11.92 14.4zm-11.91-31.79c-8.1 0-14.67 7.9-14.67 17.67v14.06c0 9.76 6.58 17.67 14.67 17.67s14.66-7.9 14.66-17.61v-14.12c0-9.76-6.57-17.67-14.66-17.67z"/><path id="9xq6c" d="M960.02 862.12c-.93 0-1.64.71-1.64 1.64v5.72c0 .93.71 1.64 1.64 1.64.92 0 1.63-.71 1.63-1.64v-5.72c0-.93-.7-1.64-1.63-1.64z"/><path id="9xq6e" d="M968.44 910.53l2.56 2.56-10.98 10.98-10.98-10.98 2.56-2.56 8.42 8.42z"/><linearGradient id="9xq6b" x1="960.02" x2="960.02" y1="848.6" y2="898" gradientUnits="userSpaceOnUse"><stop offset="0" stop-color="#2f4c6f"/><stop offset=".38" stop-color="#1e6f9b"/><stop offset="1" stop-color="#00acea"/></linearGradient><linearGradient id="9xq6d" x1="960.02" x2="960.02" y1="862.12" y2="873.45" gradientUnits="userSpaceOnUse"><stop offset="0" stop-color="#2f4c6f"/><stop offset="1" stop-color="#00acea"/></linearGradient><linearGradient id="9xq6f" x1="960.02" x2="960.02" y1="910.53" y2="924.07" gradientUnits="userSpaceOnUse"><stop offset="0" stop-color="#2f4c6f"/><stop offset=".38" stop-color="#1e6f9b"/><stop offset="1" stop-color="#00acea"/></linearGradient></defs><g><g transform="translate(-945 -848)"><use fill="url(#9xq6b)" xlink:href="#9xq6a"/></g><g transform="translate(-945 -848)"><use fill="url(#9xq6d)" xlink:href="#9xq6c"/></g><g transform="translate(-945 -848)"><use fill="url(#9xq6f)" xlink:href="#9xq6e"/></g></g></svg>