<svg xmlns="http://www.w3.org/2000/svg" xmlns:xlink="http://www.w3.org/1999/xlink" width="58" height="18" viewBox="0 0 58 18"><defs><path id="9rira" d="M553.02 845.83h4.64l-2.9 16.35h-4.65z"/><path id="9rirb" d="M571.63 846.36c-.93-.33-2.37-.68-4.17-.68-4.59 0-7.82 2.21-7.85 5.4-.02 2.34 2.31 3.65 4.07 4.43 1.81.8 2.42 1.32 2.4 2.03 0 1.1-1.43 1.6-2.77 1.6-1.86 0-2.85-.25-4.37-.86l-.6-.26-.65 3.66c1.08.46 3.09.85 5.17.87 4.88 0 8.05-2.19 8.09-5.58.02-1.86-1.22-3.28-3.9-4.45-1.62-.75-2.62-1.26-2.6-2.02 0-.68.83-1.4 2.65-1.4 1.52-.03 2.62.29 3.48.62l.42.19.63-3.55"/><path id="9rirc" d="M577.8 856.51c.4-.94 1.86-4.57 1.86-4.57-.03.05.38-.94.61-1.56l.32 1.41 1.07 4.72h-3.85zm5.74-10.53h-3.6c-1.1 0-1.94.29-2.43 1.35l-6.9 14.99h4.88l.98-2.46h5.95l.56 2.46h4.31l-3.75-16.34"/><path id="9rird" d="M546.24 845.97l-4.54 11.15-.49-2.26c-.85-2.62-3.48-5.45-6.43-6.86l4.16 14.3h4.91l7.31-16.33h-4.92"/><path id="9rire" d="M537.48 845.96h-7.5l-.05.34c5.82 1.36 9.68 4.63 11.28 8.56l-1.63-7.52c-.28-1.03-1.1-1.34-2.1-1.38"/><path id="9rirf" d="M534.96 848.62c-.1-.34-.2-.55-.56-.74l1.37.6"/></defs><g><g transform="translate(-530 -845)"><g><g><use fill="snow" xlink:href="#9rira"/></g><g><use fill="snow" xlink:href="#9rirb"/></g><g><use fill="snow" xlink:href="#9rirc"/></g><g><g><use fill="snow" xlink:href="#9rird"/></g><g><use fill="snow" xlink:href="#9rire"/></g></g><g><use fill="snow" xlink:href="#9rirf"/></g></g></g></g></svg>