<svg xmlns="http://www.w3.org/2000/svg" xmlns:xlink="http://www.w3.org/1999/xlink" width="86" height="86" viewBox="0 0 86 86"><defs><path id="l9y5a" d="M304.95 2118.96a42.95 42.95 0 1 0 0-85.91 42.95 42.95 0 0 0 0 85.9z"/><path id="l9y5b" d="M311.3 2068.63c-.02 4.74-7.5 4.2-9.88 4.2v-8.39c2.4 0 9.88-.76 9.87 4.19zm1.94 13.04c0 5.22-8.98 4.63-11.84 4.64l.01-9.25c2.86 0 11.83-.83 11.83 4.61zm5.92-14.93c-.47-4.98-4.79-6.64-10.23-7.1v-6.9h-4.22v6.72c-1.11 0-2.25.02-3.38.05l.01-6.77h-4.21l-.02 6.9c-.9.03-1.8.05-2.68.05v-.02h-5.82v4.49s3.1-.07 3.06 0c1.7-.01 2.26.98 2.42 1.83v7.86c.11 0 .26 0 .44.03h-.45l-.01 11.01c-.08.54-.4 1.4-1.59 1.4.05.04-3.07 0-3.07 0l-.84 5.02 5.49-.01 3.01.02v6.98h4.21l.01-6.91 3.37.03v6.87h4.21l.01-6.97c7.1-.42 12.07-2.2 12.7-8.83.5-5.34-2.02-7.72-6.05-8.68 2.45-1.24 3.99-3.43 3.63-7.07z"/></defs><g><g transform="translate(-262 -2033)"><g><use fill="#ed900a" xlink:href="#l9y5a"/></g><g><use fill="#fff" xlink:href="#l9y5b"/></g></g></g></svg>