<svg xmlns="http://www.w3.org/2000/svg" xmlns:xlink="http://www.w3.org/1999/xlink" width="92" height="91" viewBox="0 0 92 91"><defs><path id="aipka" d="M1230.53 2122.12a45.53 45.53 0 1 0 0-91.06 45.53 45.53 0 0 0 0 91.06z"/><path id="aipkb" d="M1230.07 2058.73c12.03.42 16.67 7.26 14.34 13.36a6.6 6.6 0 0 1-2.83 3.6c.06-.24.12-.5.16-.74.88-4.76-.78-10.5-8.86-13.66 6.43 3.63 9.03 10.08 6.03 14.24-5.11.76-8.84-3.36-8.84-8.12v-8.68zm-6.83 0h.74v28.23h-.74zm8.58-4.9c-.58 0-1.16 0-1.75.03h-12.92v33.1h-1.19v4.93h1.19v7.27h6.09v-7.27h.74v7.27h6.09v-7.27h1v-4.93h-1v-5.36l2.65.01c5.3 0 9.94.38 13.96-4.73a16.11 16.11 0 0 0 2.78-7.57c.53-5.4-1.77-10.97-7.61-13.76-2.5-1.25-6-1.71-10.03-1.72z"/></defs><g><g transform="translate(-1185 -2031)"><g><use fill="#73ad4b" xlink:href="#aipka"/></g><g><use fill="#fff" xlink:href="#aipkb"/></g></g></g></svg>