<svg xmlns="http://www.w3.org/2000/svg" xmlns:xlink="http://www.w3.org/1999/xlink" width="91" height="91" viewBox="0 0 91 91"><defs><path id="t6gza" d="M737.53 2122.18a44.66 44.66 0 1 0 0-89.33 44.66 44.66 0 0 0 0 89.33z"/><path id="t6gzb" d="M738.35 2095.5a9.56 9.56 0 0 0 12.81 3.74 9.14 9.14 0 0 0 3.83-12.53 9.5 9.5 0 0 0-8.5-4.85v-.04c-1 .1-2-.2-2.76-.83a3.54 3.54 0 0 1-.9-4.74 3.7 3.7 0 0 1 3.63-1.68 9.5 9.5 0 0 0 7.95-4.4 9.13 9.13 0 0 0-3.09-12.72 9.58 9.58 0 0 0-13 3.03 9.07 9.07 0 0 0-.05 9.62l.39.69-.03.01.02.04c.22.48.34 1.02.32 1.59a3.64 3.64 0 0 1-3.77 3.49 3.67 3.67 0 0 1-3.3-2.22l-.03-.06a9.48 9.48 0 0 0-7.84-4.5 9.37 9.37 0 0 0-9.72 8.99 9.34 9.34 0 0 0 9.18 9.5 9.5 9.5 0 0 0 8.54-4.77l.04.02a3.68 3.68 0 0 1 4.1-2.06c1.07.19 2.04.83 2.6 1.83a3.53 3.53 0 0 1-.33 3.9 9.06 9.06 0 0 0-.09 8.95"/></defs><g><g transform="translate(-692 -2032)"><g><use fill="#3ba3da" xlink:href="#t6gza"/></g><g><use fill="#fff" xlink:href="#t6gzb"/></g></g></g></svg>